# xmcd
#
# Track frame offsets:
#	150
#	10237
#	19825
#	32850
#	45975
#	55850
#	65662
#	78275
#	90225
#	100225
#	113275
#	123837
#	135775
#	147512
#	162575
#	174187
#	188675
#	199725
#	210850
#	224200
#	236537
#	248375
#	259250
#	268600
#
# Disc length: 3749
#
# Revision: 2
# Processed by: cddbd v1.5.1PL0 Copyright (c) Steve Scherf et al.
# Submitted via: EasyCDDAExtractor 6.5.0.1
# Normalized: r1:DSETVAR1
#
DISCID=3a0ea318
DTITLE=Various Artist - Wanted Country Memories
DYEAR=1900
DGENRE=Country
TTITLE0=Jim Reeves - He'll Have To Go
TTITLE1=Buck Owens - I've Got A Tiger By The Tail
TTITLE2=Bobby Helms - Fraulein
TTITLE3=Leroy Van Dyke - The Auctioneer
TTITLE4=Ned Miller - From A Jack To A King
TTITLE5=Jean Shepherd and Ferlin Husky - A Dear John Letter
TTITLE6=Gene Autry - Back In The Saddle Again
TTITLE7=Kevin Shegog - One Small Photograph
TTITLE8=Johnny Cash - Ballad Of A Teenage Queen
TTITLE9=Anita Bryant - Paper Roses
TTITLE10=Ferlin Husky - The Wings Of A Dove
TTITLE11=Cole Wilson and His Tumbleweeds - Maple On The Hill
TTITLE12=Bobby Edwards - You're The Reason
TTITLE13=T. Texas Tyler - A Deck Of Cards
TTITLE14=George Jones - Heartaches By The Number
TTITLE15=Bobby Helms - My Special Angel
TTITLE16=Roy Drusky - Saginaw Michigan
TTITLE17=Ned Miller - Do What You Do Do Well
TTITLE18=The Webb Brothers - Call Of The Bellbird
TTITLE19=Gene Autry - That Silver Haired Daddy Of Mine
TTITLE20=Kevin Shegog - The Blue Velvet Band
TTITLE21=Ellie Lavelle - The Blackboard Of My Heart
TTITLE22=George Jones - The Race Is On
TTITLE23=Nola Hewitt and The Tumbleweeds - Mother, Pal and Sweetheart
EXTD=
EXTT0=
EXTT1=
EXTT2=
EXTT3=
EXTT4=
EXTT5=
EXTT6=
EXTT7=
EXTT8=
EXTT9=
EXTT10=
EXTT11=
EXTT12=
EXTT13=
EXTT14=
EXTT15=
EXTT16=
EXTT17=
EXTT18=
EXTT19=
EXTT20=
EXTT21=
EXTT22=
EXTT23=
PLAYORDER=
